# xmcd
#
# Track frame offsets: 
#        150
#        17842
#        35139
#        50064
#        65355
#        82677
#        105524
#        125335
#        149552
#        166030
#        185601
#        207279
#
# Disc length: 3011 seconds
#
# Revision: 1
# Processed by: cddbd v1.5.2PL0 Copyright (c) Steve Scherf et al.
# Submitted via: ExactAudioCopy v1.3
#
DISCID=a30bc10c
DTITLE=三浦大知 - D.M.
DYEAR=2011
DGENRE=VISION FACTORY
TTITLE0=Black Hole
TTITLE1=Touch Me
TTITLE2=Illusion Show
TTITLE3=Love is like a bass line
TTITLE4=The Answer
TTITLE5=Only You
TTITLE6=4am
TTITLE7=RUN WAY
TTITLE8=Turn Off The Light
TTITLE9=SHOUT IT
TTITLE10=Lullaby
TTITLE11=Magic World
EXTD=YEAR: 2011
EXTT0=
EXTT1=
EXTT2=
EXTT3=
EXTT4=
EXTT5=
EXTT6=
EXTT7=
EXTT8=
EXTT9=
EXTT10=
EXTT11=
PLAYORDER=
